<svg xmlns="http://www.w3.org/2000/svg" viewBox="271 239 195 133">
<g title="Jammu and Kashmir" fill="#ccc">
<path title="Leh (Ladakh)" d="M 416.19566,367.06837 C 415.42356,366.10078 415.00294,364.8466 415.16349,363.99075 C 415.55471,361.9054 413.90648,356.62056 412.72327,356.16653 C 411.71833,355.78089 410.78357,356.00957 409.99804,356.83325 C 409.55913,357.29347 408.38885,358.21047 407.39742,358.87102 C 405.72324,359.98645 405.46762,360.07202 403.80967,360.07202 L 402.02453,360.07202 L 401.85833,360.95789 C 401.76693,361.44511 401.82905,362.20383 401.99637,362.64392 C 402.25748,363.33068 402.22567,363.50359 401.77203,363.86376 C 401.48131,364.09457 401.04372,364.68078 400.79959,365.16645 C 400.44832,365.86528 400.18715,366.04948 399.5476,366.04948 C 398.82846,366.04948 398.73947,365.95853 398.73947,365.22355 C 398.73947,364.3321 399.58578,362.44383 400.3786,361.56639 C 400.64864,361.26752 401.02868,360.24638 401.22312,359.2972 C 401.55337,357.68497 401.54245,357.54641 401.05708,357.1915 C 400.01268,356.42781 399.12731,356.72154 397.28834,358.44181 L 395.54563,360.07202 L 393.53222,360.07202 C 390.68526,360.07202 390.16884,359.57536 388.67404,355.39967 L 387.53639,352.22168 L 386.55626,352.13923 C 385.64427,352.06253 385.56079,351.97881 385.35582,350.93538 C 385.15749,349.92575 385.01371,349.76744 383.91328,349.34719 C 382.76839,348.90995 382.61851,348.90905 381.54528,349.33295 C 380.91512,349.58186 379.7882,350.12584 379.04102,350.54181 C 377.75911,351.25548 377.58955,351.28259 376.03399,351.02261 C 374.47146,350.76147 374.33,350.78479 373.32182,351.46987 C 372.73681,351.86739 372.13371,352.18959 371.98161,352.18585 C 371.8295,352.18212 371.1712,351.67538 370.51872,351.05976 L 369.33239,349.94047 L 369.77154,349.01956 C 370.01307,348.51307 370.21068,347.73077 370.21068,347.28112 C 370.21068,346.74011 370.60127,345.94675 371.36542,344.93565 C 372.47105,343.47271 372.52794,343.30277 372.70312,340.9397 C 373.03205,336.50268 373.07901,336.3894 375.30511,334.66246 L 377.27495,333.13432 L 377.26699,331.04819 C 377.25964,329.12271 377.19716,328.89406 376.45571,328.07903 C 375.75988,327.31415 375.47574,327.196 374.33216,327.196 C 372.78885,327.196 372.3088,326.79221 371.86359,325.11958 C 371.67031,324.39346 371.18784,323.65426 370.50383,323.03631 C 369.08261,321.7523 368.71738,321.58829 366.8144,321.37944 C 363.0953,320.97127 361.52812,320.40564 359.7841,318.84207 C 359.20504,318.32293 358.10465,317.61767 357.33878,317.27484 C 354.71342,316.09963 352.89482,313.3873 353.15924,311.04134 C 353.25977,310.1495 353.61302,309.3922 354.43856,308.29878 C 355.06581,307.468 355.76502,306.34308 355.99237,305.79897 C 356.57061,304.41504 356.26089,301.90007 355.24862,299.75963 C 354.59875,298.38548 354.45185,297.71648 354.4515,296.12957 C 354.45095,293.61701 353.9283,292.56325 352.07959,291.34739 C 350.70874,290.44581 350.6639,290.37707 350.81794,289.41375 C 350.91135,288.82968 350.83788,288.15374 350.64104,287.78593 C 350.45589,287.43999 350.15365,286.50836 349.96937,285.71565 L 349.63433,284.27436 L 352.65447,283.33683 C 354.31553,282.82118 356.00208,282.3194 356.40235,282.22174 C 356.80263,282.12408 357.60893,281.51807 358.19414,280.87503 C 359.0609,279.92263 359.54518,279.64165 360.80633,279.35942 L 362.3545,279.01295 L 362.79501,277.42856 C 363.12756,276.23242 363.35775,275.84418 363.73436,275.84418 C 364.06798,275.84418 364.23611,275.64168 364.24194,275.23285 C 364.25104,274.59541 365.1786,273.98785 370.88994,270.87834 C 372.23487,270.14611 373.5798,269.32654 373.87867,269.05708 C 374.17754,268.78763 375.56978,268.15654 376.97254,267.65465 C 378.67732,267.04471 379.66832,266.52924 379.96127,266.10006 C 380.20231,265.74692 381.08629,264.69766 381.92566,263.76839 C 382.76504,262.83911 383.60523,261.61386 383.79278,261.0456 L 384.13375,260.01241 L 387.65219,260.20368 C 389.58733,260.30887 391.66012,260.56764 392.25839,260.77872 C 393.17114,261.10076 393.48495,261.10449 394.20882,260.80191 C 395.41711,260.29683 395.84841,259.69076 395.66218,258.75961 L 395.50597,257.97854 L 397.8433,257.85585 C 400.58426,257.71199 401.00328,257.39387 401.28902,255.2398 C 401.45408,253.99561 401.57451,253.82116 402.89742,252.91003 C 404.4496,251.84101 411.90599,248.56437 413.76036,248.13642 C 415.42329,247.75266 417.67516,247.7998 421.71525,248.30296 C 423.9791,248.58491 425.85456,248.67553 426.85051,248.55109 C 428.27592,248.373 428.57574,248.20967 430.12784,246.76576 C 432.05938,244.96884 433.44664,244.41253 434.81045,244.88796 C 435.69813,245.19741 436.09068,245.91224 436.36736,247.72295 C 436.55839,248.97341 437.02765,249.62968 438.52259,250.73733 L 439.58809,251.52679 L 444.09249,251.52679 C 448.07182,251.52679 448.82523,251.45284 450.55546,250.89243 C 452.66906,250.20784 453.08001,250.26395 453.08001,251.23716 C 453.08001,253.08856 453.3982,253.58759 455.90382,255.6659 C 457.26477,256.79472 458.95678,258.09808 459.66391,258.56224 L 460.94963,259.40617 L 460.95452,261.5209 C 460.95979,263.80836 460.69559,264.52609 458.55186,268.04838 C 457.08192,270.4635 457.08629,270.44643 456.88208,274.62152 C 456.72197,277.89537 456.60157,278.61869 456.01809,279.81295 C 454.94631,282.00669 453.37049,284.53071 451.92266,286.37266 C 450.7657,287.84459 450.46816,288.07081 449.68894,288.07081 C 449.19452,288.07081 447.97651,288.32207 446.98224,288.62917 C 445.01652,289.23631 444.11686,290.18772 444.11482,291.66141 C 444.11425,292.09302 443.77468,292.78539 443.29654,293.32997 C 442.52591,294.20771 442.36424,294.2666 440.46194,294.36266 C 439.35242,294.41869 438.3447,294.56412 438.22257,294.68583 C 438.10044,294.80754 437.91987,296.82297 437.82129,299.16457 C 437.64591,303.33086 437.6179,303.48309 436.51223,306.27489 C 434.71478,310.81343 433.12654,312.01001 430.80039,310.57815 C 429.92458,310.03905 429.44147,309.98827 424.68708,309.93571 C 418.87954,309.8715 418.57376,309.95743 418.57376,311.65383 C 418.57376,313.11121 419.63591,316.38362 420.35771,317.15001 C 420.96336,317.79308 421.0023,318.02843 420.97662,320.8899 L 420.94921,323.94354 L 419.27742,323.77227 C 418.00441,323.64183 417.52945,323.69283 417.28608,323.98606 C 416.77004,324.60788 416.31146,328.07411 416.52216,329.76048 C 416.69622,331.15368 416.86527,331.45842 418.33627,333.03092 C 419.6521,334.43755 420.4562,335.00405 422.59445,336.03083 C 424.04425,336.72704 426.48985,337.71812 428.02905,338.23324 C 429.5683,338.74836 431.48529,339.46067 432.28907,339.81614 C 433.57379,340.38429 433.73133,340.53923 433.59183,341.09727 C 433.50456,341.44642 433.10307,342.16002 432.69964,342.68305 C 432.29619,343.20608 431.62644,344.39715 431.21131,345.32987 C 430.15349,347.70651 430.32752,348.74617 432.10923,350.69567 C 432.85726,351.51414 434.28671,353.36439 435.28576,354.80732 C 437.41013,357.87553 437.44781,357.53446 434.62208,360.8154 C 431.64185,364.27569 430.84356,364.58232 430.22139,362.50567 C 429.88285,361.37578 429.23475,360.88713 428.07472,360.88713 C 427.35935,360.88713 422.98282,364.70284 422.20809,366.00204 C 421.49231,367.20232 420.90093,367.408 418.1655,367.408 C 417.13211,367.408 416.36053,367.27496 416.19566,367.06837 z"/>





















</g> 
</svg>